<mxfile host="app.diagrams.net" modified="2022-05-06T09:26:40.886Z" agent="5.0 (Macintosh; Intel Mac OS X 10_15_7) AppleWebKit/537.36 (KHTML, like Gecko) Chrome/101.0.4951.54 Safari/537.36" etag="885QbOtlvU1uT4cfkuYL" version="14.8.5" type="github">
  <diagram id="LZHEnIE97bJt0uNwiu6p" name="Page-1">
    <mxGraphModel dx="1298" dy="841" grid="1" gridSize="10" guides="1" tooltips="1" connect="1" arrows="1" fold="1" page="1" pageScale="1" pageWidth="827" pageHeight="1169" math="0" shadow="0">
      <root>
        <mxCell id="0" />
        <mxCell id="1" parent="0" />
        <mxCell id="dKQvZDVd6S6Tx-vptP9L-1" value="业务服务" style="rounded=1;whiteSpace=wrap;html=1;fillColor=#dd669e;" vertex="1" parent="1">
          <mxGeometry x="100" y="120" width="220" height="140" as="geometry" />
        </mxCell>
      </root>
    </mxGraphModel>
  </diagram>
</mxfile>
